<svg width="18" height="10" viewBox="0 0 18 10" fill="none" xmlns="http://www.w3.org/2000/svg">
<path d="M17.881 4.71163L13.7902 0.620784C13.6433 0.449189 13.385 0.429186 13.2134 0.576171C13.0418 0.723122 13.0218 0.981375 13.1688 1.15297C13.1825 1.16897 13.1974 1.18391 13.2134 1.19758L16.6047 4.59298H0.409071C0.183161 4.59298 0 4.77614 0 5.00209C0 5.22803 0.183161 5.41116 0.409071 5.41116H16.6047L13.2134 8.80245C13.0418 8.9494 13.0218 9.20765 13.1688 9.37925C13.3158 9.55084 13.574 9.57084 13.7456 9.42386C13.7616 9.41015 13.7765 9.39524 13.7902 9.37925L17.8811 5.2884C18.0397 5.1289 18.0397 4.8712 17.881 4.71163Z" fill="white"/>
</svg>
